# xmcd
#
# Track frame offsets: 
#        150
#        11657
#        25282
#        38509
#        55515
#        71975
#        86854
#        99393
#        113286
#        125865
#        140734
#        157114
#
# Disc length: 2314 seconds
#
# Revision: 0
# Processed by: cddbd v1.5.2PL0 Copyright (c) Steve Scherf et al.
# Submitted via: ExactAudioCopyFreeDBPlugin 1.0
#
DISCID=a109080c
DTITLE=Pierre Perret - Ce soir c'est fête - Cœur cabossé
DYEAR=2011
DGENRE=Variété française
TTITLE0=Ce soir c'est fête
TTITLE1=Cœur cabossé
TTITLE2=Bahia
TTITLE3=Le vin
TTITLE4=Félicité
TTITLE5=La révolution
TTITLE6=Le gros paysan
TTITLE7=Pas de chanson aujourd'hui
TTITLE8=Pépita
TTITLE9=Les serments de quat'sous
TTITLE10=Riz pilé
TTITLE11=La veuve (2ème version)
EXTD=Intégrale 1957 - 2011
EXTT0=
EXTT1=
EXTT2=
EXTT3=
EXTT4=
EXTT5=
EXTT6=
EXTT7=
EXTT8=
EXTT9=
EXTT10=
EXTT11=
PLAYORDER=
